<mxfile host="app.diagrams.net" modified="2022-04-03T14:43:20.768Z" agent="5.0 (Macintosh; Intel Mac OS X 10_15_7) AppleWebKit/537.36 (KHTML, like Gecko) Chrome/99.0.4844.84 Safari/537.36" etag="oHxIxqsMAyOxVm5nCxVm" version="17.2.4" type="github">
  <diagram id="3228e29e-7158-1315-38df-8450db1d8a1d" name="Page-1">
    <mxGraphModel dx="880" dy="463" grid="0" gridSize="10" guides="1" tooltips="1" connect="1" arrows="1" fold="1" page="1" pageScale="1" pageWidth="420" pageHeight="270" background="#EFF1F3" math="0" shadow="0">
      <root>
        <mxCell id="0" />
        <mxCell id="1" parent="0" />
        <mxCell id="g9KwYvelNcx-eXB0xMGi-4" value="" style="shape=flexArrow;endArrow=classic;startArrow=classic;html=1;rounded=0;fontSize=16;fontColor=#000000;strokeColor=none;fillColor=#FDD276;" parent="1" edge="1">
          <mxGeometry width="100" height="100" relative="1" as="geometry">
            <mxPoint x="114" y="741.5" as="sourcePoint" />
            <mxPoint x="183" y="741.5" as="targetPoint" />
          </mxGeometry>
        </mxCell>
        <mxCell id="spV6VU4cGSJD96CcmEE0-4" value="&lt;font color=&quot;#ffffff&quot;&gt;&lt;span style=&quot;font-size: 16px&quot;&gt;&lt;br&gt;&lt;/span&gt;&lt;/font&gt;" style="whiteSpace=wrap;html=1;aspect=fixed;rounded=1;strokeColor=none;fillColor=#4A919B;" parent="1" vertex="1">
          <mxGeometry x="25" y="702" width="80" height="80" as="geometry" />
        </mxCell>
        <mxCell id="spV6VU4cGSJD96CcmEE0-6" value="数据" style="rounded=1;whiteSpace=wrap;html=1;fillColor=#9AC7BF;strokeColor=default;fontColor=#000000;align=center;" parent="1" vertex="1">
          <mxGeometry x="48" y="724" width="50" height="17" as="geometry" />
        </mxCell>
        <mxCell id="spV6VU4cGSJD96CcmEE0-12" value="&lt;font color=&quot;#ffffff&quot;&gt;页号100&lt;/font&gt;" style="text;html=1;strokeColor=none;fillColor=none;align=center;verticalAlign=middle;whiteSpace=wrap;rounded=0;dashed=1;fontColor=#535E80;" parent="1" vertex="1">
          <mxGeometry x="37" y="702" width="55" height="22" as="geometry" />
        </mxCell>
        <mxCell id="BJRcYlKcCAD2B9d3_ZLO-3" value="" style="shape=flexArrow;endArrow=classic;html=1;rounded=0;fontColor=#FFFFFF;strokeColor=none;fillColor=#FDD276;" parent="1" edge="1">
          <mxGeometry width="50" height="50" relative="1" as="geometry">
            <mxPoint x="127.65000000000032" y="657" as="sourcePoint" />
            <mxPoint x="95.5" y="689" as="targetPoint" />
          </mxGeometry>
        </mxCell>
        <mxCell id="BJRcYlKcCAD2B9d3_ZLO-4" value="" style="shape=flexArrow;endArrow=classic;html=1;rounded=0;fontColor=#FFFFFF;strokeColor=none;fillColor=#FDD276;" parent="1" edge="1">
          <mxGeometry width="50" height="50" relative="1" as="geometry">
            <mxPoint x="166.6500000000001" y="657" as="sourcePoint" />
            <mxPoint x="199.49999999999977" y="689" as="targetPoint" />
          </mxGeometry>
        </mxCell>
        <mxCell id="SSU85J6YOylga-3CZ0uj-2" value="&lt;font&gt;1&lt;/font&gt;" style="rounded=1;whiteSpace=wrap;html=1;fillColor=#9AC7BF;strokeColor=default;fontColor=#000000;" parent="1" vertex="1">
          <mxGeometry x="32.25" y="724" width="15.75" height="17" as="geometry" />
        </mxCell>
        <mxCell id="SSU85J6YOylga-3CZ0uj-3" value="数据" style="rounded=1;whiteSpace=wrap;html=1;fillColor=#9AC7BF;strokeColor=default;fontColor=#000000;align=center;" parent="1" vertex="1">
          <mxGeometry x="48" y="741" width="50" height="17" as="geometry" />
        </mxCell>
        <mxCell id="SSU85J6YOylga-3CZ0uj-4" value="&lt;font&gt;2&lt;/font&gt;" style="rounded=1;whiteSpace=wrap;html=1;fillColor=#9AC7BF;strokeColor=default;fontColor=#000000;" parent="1" vertex="1">
          <mxGeometry x="32.25" y="741" width="15.75" height="17" as="geometry" />
        </mxCell>
        <mxCell id="SSU85J6YOylga-3CZ0uj-5" value="数据" style="rounded=1;whiteSpace=wrap;html=1;fillColor=#9AC7BF;strokeColor=default;fontColor=#000000;align=center;" parent="1" vertex="1">
          <mxGeometry x="48" y="758" width="50" height="17" as="geometry" />
        </mxCell>
        <mxCell id="SSU85J6YOylga-3CZ0uj-6" value="&lt;font&gt;3&lt;/font&gt;" style="rounded=1;whiteSpace=wrap;html=1;fillColor=#9AC7BF;strokeColor=default;fontColor=#000000;" parent="1" vertex="1">
          <mxGeometry x="32.25" y="758" width="15.75" height="17" as="geometry" />
        </mxCell>
        <mxCell id="SSU85J6YOylga-3CZ0uj-8" value="&lt;font color=&quot;#ffffff&quot;&gt;&lt;span style=&quot;font-size: 16px&quot;&gt;&lt;br&gt;&lt;/span&gt;&lt;/font&gt;" style="whiteSpace=wrap;html=1;aspect=fixed;rounded=1;strokeColor=none;fillColor=#4A919B;" parent="1" vertex="1">
          <mxGeometry x="190" y="702" width="80" height="80" as="geometry" />
        </mxCell>
        <mxCell id="SSU85J6YOylga-3CZ0uj-9" value="数据" style="rounded=1;whiteSpace=wrap;html=1;fillColor=#9AC7BF;strokeColor=default;fontColor=#000000;align=center;" parent="1" vertex="1">
          <mxGeometry x="213" y="724" width="50" height="17" as="geometry" />
        </mxCell>
        <mxCell id="SSU85J6YOylga-3CZ0uj-10" value="&lt;font color=&quot;#ffffff&quot;&gt;页号105&lt;/font&gt;" style="text;html=1;strokeColor=none;fillColor=none;align=center;verticalAlign=middle;whiteSpace=wrap;rounded=0;dashed=1;fontColor=#535E80;" parent="1" vertex="1">
          <mxGeometry x="202" y="702" width="55" height="22" as="geometry" />
        </mxCell>
        <mxCell id="SSU85J6YOylga-3CZ0uj-11" value="&lt;font&gt;4&lt;/font&gt;" style="rounded=1;whiteSpace=wrap;html=1;fillColor=#9AC7BF;strokeColor=default;fontColor=#000000;" parent="1" vertex="1">
          <mxGeometry x="197.25" y="724" width="15.75" height="17" as="geometry" />
        </mxCell>
        <mxCell id="SSU85J6YOylga-3CZ0uj-12" value="数据" style="rounded=1;whiteSpace=wrap;html=1;fillColor=#9AC7BF;strokeColor=default;fontColor=#000000;align=center;" parent="1" vertex="1">
          <mxGeometry x="213" y="741" width="50" height="17" as="geometry" />
        </mxCell>
        <mxCell id="SSU85J6YOylga-3CZ0uj-13" value="&lt;font&gt;5&lt;/font&gt;" style="rounded=1;whiteSpace=wrap;html=1;fillColor=#9AC7BF;strokeColor=default;fontColor=#000000;" parent="1" vertex="1">
          <mxGeometry x="197.25" y="741" width="15.75" height="17" as="geometry" />
        </mxCell>
        <mxCell id="SSU85J6YOylga-3CZ0uj-50" value="&lt;font color=&quot;#ffffff&quot;&gt;&lt;span style=&quot;font-size: 16px&quot;&gt;&lt;br&gt;&lt;/span&gt;&lt;/font&gt;" style="whiteSpace=wrap;html=1;aspect=fixed;rounded=1;strokeColor=none;fillColor=#67AB9F;" parent="1" vertex="1">
          <mxGeometry x="108" y="565" width="80" height="80" as="geometry" />
        </mxCell>
        <mxCell id="SSU85J6YOylga-3CZ0uj-51" value="页号100" style="rounded=1;whiteSpace=wrap;html=1;fillColor=#9AC7BF;strokeColor=default;fontColor=#000000;align=center;" parent="1" vertex="1">
          <mxGeometry x="130.88" y="593" width="50" height="17" as="geometry" />
        </mxCell>
        <mxCell id="SSU85J6YOylga-3CZ0uj-52" value="&lt;font color=&quot;#ffffff&quot;&gt;页号6&lt;/font&gt;" style="text;html=1;strokeColor=none;fillColor=none;align=center;verticalAlign=middle;whiteSpace=wrap;rounded=0;dashed=1;fontColor=#535E80;" parent="1" vertex="1">
          <mxGeometry x="120" y="565" width="55" height="22" as="geometry" />
        </mxCell>
        <mxCell id="SSU85J6YOylga-3CZ0uj-53" value="&lt;font&gt;1&lt;/font&gt;" style="rounded=1;whiteSpace=wrap;html=1;fillColor=#9AC7BF;strokeColor=default;fontColor=#000000;" parent="1" vertex="1">
          <mxGeometry x="115.13" y="593" width="15.75" height="17" as="geometry" />
        </mxCell>
        <mxCell id="SSU85J6YOylga-3CZ0uj-54" value="页号105" style="rounded=1;whiteSpace=wrap;html=1;fillColor=#9AC7BF;strokeColor=default;fontColor=#000000;align=center;" parent="1" vertex="1">
          <mxGeometry x="130.88" y="610" width="50" height="17" as="geometry" />
        </mxCell>
        <mxCell id="SSU85J6YOylga-3CZ0uj-55" value="&lt;font&gt;4&lt;/font&gt;" style="rounded=1;whiteSpace=wrap;html=1;fillColor=#9AC7BF;strokeColor=default;fontColor=#000000;" parent="1" vertex="1">
          <mxGeometry x="115.13" y="610" width="15.75" height="17" as="geometry" />
        </mxCell>
        <mxCell id="GaA7F-3ZN9o3i6LmKS-X-1" value="" style="shape=flexArrow;endArrow=classic;startArrow=classic;html=1;rounded=0;fontSize=16;fontColor=#000000;strokeColor=none;fillColor=#FDD276;" edge="1" parent="1">
          <mxGeometry width="100" height="100" relative="1" as="geometry">
            <mxPoint x="487" y="741.5" as="sourcePoint" />
            <mxPoint x="556" y="741.5" as="targetPoint" />
          </mxGeometry>
        </mxCell>
        <mxCell id="GaA7F-3ZN9o3i6LmKS-X-2" value="&lt;font color=&quot;#ffffff&quot;&gt;&lt;span style=&quot;font-size: 16px&quot;&gt;&lt;br&gt;&lt;/span&gt;&lt;/font&gt;" style="whiteSpace=wrap;html=1;aspect=fixed;rounded=1;strokeColor=none;fillColor=#4A919B;" vertex="1" parent="1">
          <mxGeometry x="398" y="702" width="80" height="80" as="geometry" />
        </mxCell>
        <mxCell id="GaA7F-3ZN9o3i6LmKS-X-3" value="数据" style="rounded=1;whiteSpace=wrap;html=1;fillColor=#9AC7BF;strokeColor=default;fontColor=#000000;align=center;" vertex="1" parent="1">
          <mxGeometry x="421" y="724" width="50" height="17" as="geometry" />
        </mxCell>
        <mxCell id="GaA7F-3ZN9o3i6LmKS-X-4" value="&lt;font color=&quot;#ffffff&quot;&gt;页号100&lt;/font&gt;" style="text;html=1;strokeColor=none;fillColor=none;align=center;verticalAlign=middle;whiteSpace=wrap;rounded=0;dashed=1;fontColor=#535E80;" vertex="1" parent="1">
          <mxGeometry x="410" y="702" width="55" height="22" as="geometry" />
        </mxCell>
        <mxCell id="GaA7F-3ZN9o3i6LmKS-X-5" value="" style="shape=flexArrow;endArrow=classic;html=1;rounded=0;fontColor=#FFFFFF;strokeColor=none;fillColor=#FDD276;" edge="1" parent="1">
          <mxGeometry width="50" height="50" relative="1" as="geometry">
            <mxPoint x="500.6500000000003" y="657" as="sourcePoint" />
            <mxPoint x="468.5" y="689" as="targetPoint" />
          </mxGeometry>
        </mxCell>
        <mxCell id="GaA7F-3ZN9o3i6LmKS-X-6" value="" style="shape=flexArrow;endArrow=classic;html=1;rounded=0;fontColor=#FFFFFF;strokeColor=none;fillColor=#FDD276;" edge="1" parent="1">
          <mxGeometry width="50" height="50" relative="1" as="geometry">
            <mxPoint x="539.6500000000001" y="657" as="sourcePoint" />
            <mxPoint x="572.4999999999998" y="689" as="targetPoint" />
          </mxGeometry>
        </mxCell>
        <mxCell id="GaA7F-3ZN9o3i6LmKS-X-7" value="&lt;font&gt;1&lt;/font&gt;" style="rounded=1;whiteSpace=wrap;html=1;fillColor=#9AC7BF;strokeColor=default;fontColor=#000000;" vertex="1" parent="1">
          <mxGeometry x="405.25" y="724" width="15.75" height="17" as="geometry" />
        </mxCell>
        <mxCell id="GaA7F-3ZN9o3i6LmKS-X-8" value="数据" style="rounded=1;whiteSpace=wrap;html=1;fillColor=#9AC7BF;strokeColor=default;fontColor=#000000;align=center;" vertex="1" parent="1">
          <mxGeometry x="421" y="741" width="50" height="17" as="geometry" />
        </mxCell>
        <mxCell id="GaA7F-3ZN9o3i6LmKS-X-9" value="&lt;font&gt;2&lt;/font&gt;" style="rounded=1;whiteSpace=wrap;html=1;fillColor=#9AC7BF;strokeColor=default;fontColor=#000000;" vertex="1" parent="1">
          <mxGeometry x="405.25" y="741" width="15.75" height="17" as="geometry" />
        </mxCell>
        <mxCell id="GaA7F-3ZN9o3i6LmKS-X-10" value="数据" style="rounded=1;whiteSpace=wrap;html=1;fillColor=#9AC7BF;strokeColor=default;fontColor=#000000;align=center;" vertex="1" parent="1">
          <mxGeometry x="421" y="758" width="50" height="17" as="geometry" />
        </mxCell>
        <mxCell id="GaA7F-3ZN9o3i6LmKS-X-11" value="&lt;font&gt;3&lt;/font&gt;" style="rounded=1;whiteSpace=wrap;html=1;fillColor=#9AC7BF;strokeColor=default;fontColor=#000000;" vertex="1" parent="1">
          <mxGeometry x="405.25" y="758" width="15.75" height="17" as="geometry" />
        </mxCell>
        <mxCell id="GaA7F-3ZN9o3i6LmKS-X-12" value="&lt;font color=&quot;#ffffff&quot;&gt;&lt;span style=&quot;font-size: 16px&quot;&gt;&lt;br&gt;&lt;/span&gt;&lt;/font&gt;" style="whiteSpace=wrap;html=1;aspect=fixed;rounded=1;strokeColor=none;fillColor=#4A919B;" vertex="1" parent="1">
          <mxGeometry x="563" y="702" width="80" height="80" as="geometry" />
        </mxCell>
        <mxCell id="GaA7F-3ZN9o3i6LmKS-X-13" value="数据" style="rounded=1;whiteSpace=wrap;html=1;fillColor=#9AC7BF;strokeColor=default;fontColor=#000000;align=center;" vertex="1" parent="1">
          <mxGeometry x="586" y="724" width="50" height="17" as="geometry" />
        </mxCell>
        <mxCell id="GaA7F-3ZN9o3i6LmKS-X-14" value="&lt;font color=&quot;#ffffff&quot;&gt;页号105&lt;/font&gt;" style="text;html=1;strokeColor=none;fillColor=none;align=center;verticalAlign=middle;whiteSpace=wrap;rounded=0;dashed=1;fontColor=#535E80;" vertex="1" parent="1">
          <mxGeometry x="575" y="702" width="55" height="22" as="geometry" />
        </mxCell>
        <mxCell id="GaA7F-3ZN9o3i6LmKS-X-15" value="&lt;font&gt;4&lt;/font&gt;" style="rounded=1;whiteSpace=wrap;html=1;fillColor=#9AC7BF;strokeColor=default;fontColor=#000000;" vertex="1" parent="1">
          <mxGeometry x="570.25" y="724" width="15.75" height="17" as="geometry" />
        </mxCell>
        <mxCell id="GaA7F-3ZN9o3i6LmKS-X-16" value="数据" style="rounded=1;whiteSpace=wrap;html=1;fillColor=#9AC7BF;strokeColor=default;fontColor=#000000;align=center;" vertex="1" parent="1">
          <mxGeometry x="586" y="741" width="50" height="17" as="geometry" />
        </mxCell>
        <mxCell id="GaA7F-3ZN9o3i6LmKS-X-17" value="&lt;font&gt;5&lt;/font&gt;" style="rounded=1;whiteSpace=wrap;html=1;fillColor=#9AC7BF;strokeColor=default;fontColor=#000000;" vertex="1" parent="1">
          <mxGeometry x="570.25" y="741" width="15.75" height="17" as="geometry" />
        </mxCell>
        <mxCell id="GaA7F-3ZN9o3i6LmKS-X-18" value="数据" style="rounded=1;whiteSpace=wrap;html=1;fillColor=#F19C99;strokeColor=default;fontColor=#000000;align=center;" vertex="1" parent="1">
          <mxGeometry x="586" y="758" width="50" height="17" as="geometry" />
        </mxCell>
        <mxCell id="GaA7F-3ZN9o3i6LmKS-X-19" value="&lt;font&gt;6&lt;/font&gt;" style="rounded=1;whiteSpace=wrap;html=1;fillColor=#F19C99;strokeColor=default;fontColor=#000000;" vertex="1" parent="1">
          <mxGeometry x="570.25" y="758" width="15.75" height="17" as="geometry" />
        </mxCell>
        <mxCell id="GaA7F-3ZN9o3i6LmKS-X-20" value="&lt;font color=&quot;#ffffff&quot;&gt;&lt;span style=&quot;font-size: 16px&quot;&gt;&lt;br&gt;&lt;/span&gt;&lt;/font&gt;" style="whiteSpace=wrap;html=1;aspect=fixed;rounded=1;strokeColor=none;fillColor=#67AB9F;" vertex="1" parent="1">
          <mxGeometry x="481" y="565" width="80" height="80" as="geometry" />
        </mxCell>
        <mxCell id="GaA7F-3ZN9o3i6LmKS-X-21" value="页号100" style="rounded=1;whiteSpace=wrap;html=1;fillColor=#9AC7BF;strokeColor=default;fontColor=#000000;align=center;" vertex="1" parent="1">
          <mxGeometry x="503.88" y="593" width="50" height="17" as="geometry" />
        </mxCell>
        <mxCell id="GaA7F-3ZN9o3i6LmKS-X-22" value="&lt;font color=&quot;#ffffff&quot;&gt;页号6&lt;/font&gt;" style="text;html=1;strokeColor=none;fillColor=none;align=center;verticalAlign=middle;whiteSpace=wrap;rounded=0;dashed=1;fontColor=#535E80;" vertex="1" parent="1">
          <mxGeometry x="493" y="565" width="55" height="22" as="geometry" />
        </mxCell>
        <mxCell id="GaA7F-3ZN9o3i6LmKS-X-23" value="&lt;font&gt;1&lt;/font&gt;" style="rounded=1;whiteSpace=wrap;html=1;fillColor=#9AC7BF;strokeColor=default;fontColor=#000000;" vertex="1" parent="1">
          <mxGeometry x="488.13" y="593" width="15.75" height="17" as="geometry" />
        </mxCell>
        <mxCell id="GaA7F-3ZN9o3i6LmKS-X-24" value="页号105" style="rounded=1;whiteSpace=wrap;html=1;fillColor=#9AC7BF;strokeColor=default;fontColor=#000000;align=center;" vertex="1" parent="1">
          <mxGeometry x="503.88" y="610" width="50" height="17" as="geometry" />
        </mxCell>
        <mxCell id="GaA7F-3ZN9o3i6LmKS-X-25" value="&lt;font&gt;4&lt;/font&gt;" style="rounded=1;whiteSpace=wrap;html=1;fillColor=#9AC7BF;strokeColor=default;fontColor=#000000;" vertex="1" parent="1">
          <mxGeometry x="488.13" y="610" width="15.75" height="17" as="geometry" />
        </mxCell>
        <mxCell id="GaA7F-3ZN9o3i6LmKS-X-26" value="" style="shape=curlyBracket;whiteSpace=wrap;html=1;rounded=1;flipH=1;fontColor=#000000;fillColor=none;fontSize=5;strokeWidth=3;strokeColor=#4A919B;" vertex="1" parent="1">
          <mxGeometry x="667" y="695.5" width="20" height="89" as="geometry" />
        </mxCell>
        <mxCell id="GaA7F-3ZN9o3i6LmKS-X-27" value="叶子结点&lt;br&gt;放数据表行数据" style="text;html=1;strokeColor=none;fillColor=none;align=center;verticalAlign=middle;whiteSpace=wrap;rounded=0;fontColor=#4A919B;" vertex="1" parent="1">
          <mxGeometry x="693.5" y="722" width="92" height="44" as="geometry" />
        </mxCell>
        <mxCell id="GaA7F-3ZN9o3i6LmKS-X-28" value="" style="shape=curlyBracket;whiteSpace=wrap;html=1;rounded=1;flipH=1;fontColor=#000000;fillColor=none;fontSize=5;strokeWidth=3;strokeColor=#67AB9F;" vertex="1" parent="1">
          <mxGeometry x="667" y="565" width="20" height="89" as="geometry" />
        </mxCell>
        <mxCell id="GaA7F-3ZN9o3i6LmKS-X-29" value="&lt;span style=&quot;color: rgb(103 , 171 , 159)&quot;&gt;非叶子结点&lt;/span&gt;&lt;br style=&quot;color: rgb(103 , 171 , 159)&quot;&gt;&lt;span style=&quot;color: rgb(103 , 171 , 159)&quot;&gt;放索引数据&lt;/span&gt;" style="text;html=1;strokeColor=none;fillColor=none;align=center;verticalAlign=middle;whiteSpace=wrap;rounded=0;fontColor=#4A919B;" vertex="1" parent="1">
          <mxGeometry x="693.5" y="591.5" width="92" height="44" as="geometry" />
        </mxCell>
        <mxCell id="GaA7F-3ZN9o3i6LmKS-X-33" value="" style="shape=flexArrow;endArrow=classic;startArrow=none;html=1;rounded=0;fontSize=16;fontColor=#000000;strokeColor=none;fillColor=#535E80;startFill=0;" edge="1" parent="1">
          <mxGeometry width="100" height="100" relative="1" as="geometry">
            <mxPoint x="297.75" y="674" as="sourcePoint" />
            <mxPoint x="389.75" y="674" as="targetPoint" />
          </mxGeometry>
        </mxCell>
        <mxCell id="GaA7F-3ZN9o3i6LmKS-X-89" value="数据" style="rounded=1;whiteSpace=wrap;html=1;fillColor=#F19C99;strokeColor=default;fontColor=#000000;align=center;" vertex="1" parent="1">
          <mxGeometry x="316" y="648" width="50" height="17" as="geometry" />
        </mxCell>
        <mxCell id="GaA7F-3ZN9o3i6LmKS-X-90" value="&lt;font&gt;6&lt;/font&gt;" style="rounded=1;whiteSpace=wrap;html=1;fillColor=#F19C99;strokeColor=default;fontColor=#000000;" vertex="1" parent="1">
          <mxGeometry x="300.25" y="648" width="15.75" height="17" as="geometry" />
        </mxCell>
        <mxCell id="GaA7F-3ZN9o3i6LmKS-X-91" value="插入" style="text;html=1;strokeColor=none;fillColor=none;align=center;verticalAlign=middle;whiteSpace=wrap;rounded=0;" vertex="1" parent="1">
          <mxGeometry x="266" y="648" width="34.25" height="17" as="geometry" />
        </mxCell>
      </root>
    </mxGraphModel>
  </diagram>
</mxfile>
